<mxfile host="app.diagrams.net" modified="2024-05-07T18:22:20.778Z" agent="Mozilla/5.0 (Windows NT 10.0; Win64; x64; rv:125.0) Gecko/20100101 Firefox/125.0" etag="krdiQw1un7VZYfptW_r9" version="24.3.1" type="device">
  <diagram name="Página-1" id="wdI7xynGAPam7uK0gPJY">
    <mxGraphModel dx="1235" dy="666" grid="1" gridSize="10" guides="1" tooltips="1" connect="1" arrows="1" fold="1" page="1" pageScale="1" pageWidth="827" pageHeight="1169" math="0" shadow="0">
      <root>
        <mxCell id="0" />
        <mxCell id="1" parent="0" />
        <mxCell id="Ls0kTGW3VqZ2c9Jo3m9s-1" value="Data_Service_1" style="shape=umlLifeline;perimeter=lifelinePerimeter;whiteSpace=wrap;html=1;container=1;dropTarget=0;collapsible=0;recursiveResize=0;outlineConnect=0;portConstraint=eastwest;newEdgeStyle={&quot;edgeStyle&quot;:&quot;elbowEdgeStyle&quot;,&quot;elbow&quot;:&quot;vertical&quot;,&quot;curved&quot;:0,&quot;rounded&quot;:0};" vertex="1" parent="1">
          <mxGeometry x="40" y="40" width="100" height="400" as="geometry" />
        </mxCell>
        <mxCell id="Ls0kTGW3VqZ2c9Jo3m9s-11" value="" style="html=1;points=[[0,0,0,0,5],[0,1,0,0,-5],[1,0,0,0,5],[1,1,0,0,-5]];perimeter=orthogonalPerimeter;outlineConnect=0;targetShapes=umlLifeline;portConstraint=eastwest;newEdgeStyle={&quot;curved&quot;:0,&quot;rounded&quot;:0};" vertex="1" parent="Ls0kTGW3VqZ2c9Jo3m9s-1">
          <mxGeometry x="45" y="70" width="10" height="30" as="geometry" />
        </mxCell>
        <mxCell id="Ls0kTGW3VqZ2c9Jo3m9s-2" value="&lt;div&gt;Data_Service_2&lt;/div&gt;" style="shape=umlLifeline;perimeter=lifelinePerimeter;whiteSpace=wrap;html=1;container=1;dropTarget=0;collapsible=0;recursiveResize=0;outlineConnect=0;portConstraint=eastwest;newEdgeStyle={&quot;edgeStyle&quot;:&quot;elbowEdgeStyle&quot;,&quot;elbow&quot;:&quot;vertical&quot;,&quot;curved&quot;:0,&quot;rounded&quot;:0};" vertex="1" parent="1">
          <mxGeometry x="170" y="40" width="100" height="400" as="geometry" />
        </mxCell>
        <mxCell id="Ls0kTGW3VqZ2c9Jo3m9s-19" value="" style="html=1;points=[[0,0,0,0,5],[0,1,0,0,-5],[1,0,0,0,5],[1,1,0,0,-5]];perimeter=orthogonalPerimeter;outlineConnect=0;targetShapes=umlLifeline;portConstraint=eastwest;newEdgeStyle={&quot;curved&quot;:0,&quot;rounded&quot;:0};" vertex="1" parent="Ls0kTGW3VqZ2c9Jo3m9s-2">
          <mxGeometry x="45" y="109" width="10" height="30" as="geometry" />
        </mxCell>
        <mxCell id="Ls0kTGW3VqZ2c9Jo3m9s-3" value="Data_Service_3" style="shape=umlLifeline;perimeter=lifelinePerimeter;whiteSpace=wrap;html=1;container=1;dropTarget=0;collapsible=0;recursiveResize=0;outlineConnect=0;portConstraint=eastwest;newEdgeStyle={&quot;edgeStyle&quot;:&quot;elbowEdgeStyle&quot;,&quot;elbow&quot;:&quot;vertical&quot;,&quot;curved&quot;:0,&quot;rounded&quot;:0};" vertex="1" parent="1">
          <mxGeometry x="300" y="40" width="100" height="400" as="geometry" />
        </mxCell>
        <mxCell id="Ls0kTGW3VqZ2c9Jo3m9s-24" value="" style="html=1;points=[[0,0,0,0,5],[0,1,0,0,-5],[1,0,0,0,5],[1,1,0,0,-5]];perimeter=orthogonalPerimeter;outlineConnect=0;targetShapes=umlLifeline;portConstraint=eastwest;newEdgeStyle={&quot;curved&quot;:0,&quot;rounded&quot;:0};" vertex="1" parent="Ls0kTGW3VqZ2c9Jo3m9s-3">
          <mxGeometry x="45" y="150" width="10" height="30" as="geometry" />
        </mxCell>
        <mxCell id="Ls0kTGW3VqZ2c9Jo3m9s-4" value="Aggregator_Service" style="shape=umlLifeline;perimeter=lifelinePerimeter;whiteSpace=wrap;html=1;container=1;dropTarget=0;collapsible=0;recursiveResize=0;outlineConnect=0;portConstraint=eastwest;newEdgeStyle={&quot;edgeStyle&quot;:&quot;elbowEdgeStyle&quot;,&quot;elbow&quot;:&quot;vertical&quot;,&quot;curved&quot;:0,&quot;rounded&quot;:0};" vertex="1" parent="1">
          <mxGeometry x="430" y="40" width="110" height="400" as="geometry" />
        </mxCell>
        <mxCell id="Ls0kTGW3VqZ2c9Jo3m9s-14" value="" style="html=1;points=[[0,0,0,0,5],[0,1,0,0,-5],[1,0,0,0,5],[1,1,0,0,-5]];perimeter=orthogonalPerimeter;outlineConnect=0;targetShapes=umlLifeline;portConstraint=eastwest;newEdgeStyle={&quot;curved&quot;:0,&quot;rounded&quot;:0};" vertex="1" parent="Ls0kTGW3VqZ2c9Jo3m9s-4">
          <mxGeometry x="50" y="70" width="10" height="30" as="geometry" />
        </mxCell>
        <mxCell id="Ls0kTGW3VqZ2c9Jo3m9s-21" value="" style="html=1;points=[[0,0,0,0,5],[0,1,0,0,-5],[1,0,0,0,5],[1,1,0,0,-5]];perimeter=orthogonalPerimeter;outlineConnect=0;targetShapes=umlLifeline;portConstraint=eastwest;newEdgeStyle={&quot;curved&quot;:0,&quot;rounded&quot;:0};" vertex="1" parent="Ls0kTGW3VqZ2c9Jo3m9s-4">
          <mxGeometry x="50" y="109" width="10" height="30" as="geometry" />
        </mxCell>
        <mxCell id="Ls0kTGW3VqZ2c9Jo3m9s-25" value="" style="html=1;points=[[0,0,0,0,5],[0,1,0,0,-5],[1,0,0,0,5],[1,1,0,0,-5]];perimeter=orthogonalPerimeter;outlineConnect=0;targetShapes=umlLifeline;portConstraint=eastwest;newEdgeStyle={&quot;curved&quot;:0,&quot;rounded&quot;:0};" vertex="1" parent="Ls0kTGW3VqZ2c9Jo3m9s-4">
          <mxGeometry x="50" y="150" width="10" height="30" as="geometry" />
        </mxCell>
        <mxCell id="Ls0kTGW3VqZ2c9Jo3m9s-28" value="" style="html=1;points=[[0,0,0,0,5],[0,1,0,0,-5],[1,0,0,0,5],[1,1,0,0,-5]];perimeter=orthogonalPerimeter;outlineConnect=0;targetShapes=umlLifeline;portConstraint=eastwest;newEdgeStyle={&quot;curved&quot;:0,&quot;rounded&quot;:0};" vertex="1" parent="Ls0kTGW3VqZ2c9Jo3m9s-4">
          <mxGeometry x="50" y="190" width="10" height="50" as="geometry" />
        </mxCell>
        <mxCell id="Ls0kTGW3VqZ2c9Jo3m9s-29" style="edgeStyle=orthogonalEdgeStyle;rounded=0;orthogonalLoop=1;jettySize=auto;html=1;curved=0;exitX=1;exitY=0;exitDx=0;exitDy=5;exitPerimeter=0;" edge="1" parent="Ls0kTGW3VqZ2c9Jo3m9s-4" source="Ls0kTGW3VqZ2c9Jo3m9s-28" target="Ls0kTGW3VqZ2c9Jo3m9s-28">
          <mxGeometry relative="1" as="geometry" />
        </mxCell>
        <mxCell id="Ls0kTGW3VqZ2c9Jo3m9s-33" value="" style="html=1;points=[[0,0,0,0,5],[0,1,0,0,-5],[1,0,0,0,5],[1,1,0,0,-5]];perimeter=orthogonalPerimeter;outlineConnect=0;targetShapes=umlLifeline;portConstraint=eastwest;newEdgeStyle={&quot;curved&quot;:0,&quot;rounded&quot;:0};" vertex="1" parent="Ls0kTGW3VqZ2c9Jo3m9s-4">
          <mxGeometry x="50" y="271" width="10" height="9" as="geometry" />
        </mxCell>
        <mxCell id="Ls0kTGW3VqZ2c9Jo3m9s-5" value="Grover_Service" style="shape=umlLifeline;perimeter=lifelinePerimeter;whiteSpace=wrap;html=1;container=1;dropTarget=0;collapsible=0;recursiveResize=0;outlineConnect=0;portConstraint=eastwest;newEdgeStyle={&quot;edgeStyle&quot;:&quot;elbowEdgeStyle&quot;,&quot;elbow&quot;:&quot;vertical&quot;,&quot;curved&quot;:0,&quot;rounded&quot;:0};" vertex="1" parent="1">
          <mxGeometry x="571" y="40" width="100" height="400" as="geometry" />
        </mxCell>
        <mxCell id="Ls0kTGW3VqZ2c9Jo3m9s-30" value="" style="html=1;points=[[0,0,0,0,5],[0,1,0,0,-5],[1,0,0,0,5],[1,1,0,0,-5]];perimeter=orthogonalPerimeter;outlineConnect=0;targetShapes=umlLifeline;portConstraint=eastwest;newEdgeStyle={&quot;curved&quot;:0,&quot;rounded&quot;:0};" vertex="1" parent="Ls0kTGW3VqZ2c9Jo3m9s-5">
          <mxGeometry x="45" y="230" width="10" height="50" as="geometry" />
        </mxCell>
        <mxCell id="Ls0kTGW3VqZ2c9Jo3m9s-32" style="edgeStyle=orthogonalEdgeStyle;rounded=0;orthogonalLoop=1;jettySize=auto;html=1;curved=0;exitX=1;exitY=0;exitDx=0;exitDy=5;exitPerimeter=0;entryX=1;entryY=1;entryDx=0;entryDy=-5;entryPerimeter=0;" edge="1" parent="Ls0kTGW3VqZ2c9Jo3m9s-5" source="Ls0kTGW3VqZ2c9Jo3m9s-30" target="Ls0kTGW3VqZ2c9Jo3m9s-30">
          <mxGeometry relative="1" as="geometry" />
        </mxCell>
        <mxCell id="Ls0kTGW3VqZ2c9Jo3m9s-47" value="&lt;div&gt;Lanzamiento &lt;br&gt;&lt;/div&gt;&lt;div&gt;en&lt;/div&gt;&lt;div&gt;Cloud&lt;br&gt;&lt;/div&gt;" style="edgeLabel;html=1;align=center;verticalAlign=middle;resizable=0;points=[];" vertex="1" connectable="0" parent="Ls0kTGW3VqZ2c9Jo3m9s-32">
          <mxGeometry x="-0.1439" y="-2" relative="1" as="geometry">
            <mxPoint x="36" y="6" as="offset" />
          </mxGeometry>
        </mxCell>
        <mxCell id="Ls0kTGW3VqZ2c9Jo3m9s-6" value="&lt;div&gt;Result_Processing_Service&lt;/div&gt;" style="shape=umlLifeline;perimeter=lifelinePerimeter;whiteSpace=wrap;html=1;container=1;dropTarget=0;collapsible=0;recursiveResize=0;outlineConnect=0;portConstraint=eastwest;newEdgeStyle={&quot;edgeStyle&quot;:&quot;elbowEdgeStyle&quot;,&quot;elbow&quot;:&quot;vertical&quot;,&quot;curved&quot;:0,&quot;rounded&quot;:0};" vertex="1" parent="1">
          <mxGeometry x="700" y="40" width="160" height="400" as="geometry" />
        </mxCell>
        <mxCell id="Ls0kTGW3VqZ2c9Jo3m9s-38" value="" style="html=1;points=[[0,0,0,0,5],[0,1,0,0,-5],[1,0,0,0,5],[1,1,0,0,-5]];perimeter=orthogonalPerimeter;outlineConnect=0;targetShapes=umlLifeline;portConstraint=eastwest;newEdgeStyle={&quot;curved&quot;:0,&quot;rounded&quot;:0};" vertex="1" parent="Ls0kTGW3VqZ2c9Jo3m9s-6">
          <mxGeometry x="75" y="310" width="10" height="30" as="geometry" />
        </mxCell>
        <mxCell id="Ls0kTGW3VqZ2c9Jo3m9s-41" value="" style="html=1;points=[[0,0,0,0,5],[0,1,0,0,-5],[1,0,0,0,5],[1,1,0,0,-5]];perimeter=orthogonalPerimeter;outlineConnect=0;targetShapes=umlLifeline;portConstraint=eastwest;newEdgeStyle={&quot;curved&quot;:0,&quot;rounded&quot;:0};" vertex="1" parent="Ls0kTGW3VqZ2c9Jo3m9s-6">
          <mxGeometry x="75" y="360" width="10" height="30" as="geometry" />
        </mxCell>
        <mxCell id="Ls0kTGW3VqZ2c9Jo3m9s-42" value="&lt;div&gt;Notificación&amp;nbsp;&lt;/div&gt;&lt;div&gt;del resultado&amp;nbsp;&lt;/div&gt;&lt;div&gt;del procesamiento&lt;br&gt;&lt;/div&gt;" style="edgeStyle=orthogonalEdgeStyle;rounded=0;orthogonalLoop=1;jettySize=auto;html=1;curved=0;exitX=1;exitY=0;exitDx=0;exitDy=5;exitPerimeter=0;" edge="1" parent="Ls0kTGW3VqZ2c9Jo3m9s-6" source="Ls0kTGW3VqZ2c9Jo3m9s-41" target="Ls0kTGW3VqZ2c9Jo3m9s-41">
          <mxGeometry x="0.2" y="-55" relative="1" as="geometry">
            <mxPoint x="56" y="55" as="offset" />
          </mxGeometry>
        </mxCell>
        <mxCell id="Ls0kTGW3VqZ2c9Jo3m9s-15" style="edgeStyle=orthogonalEdgeStyle;rounded=0;orthogonalLoop=1;jettySize=auto;html=1;curved=0;exitX=1;exitY=0;exitDx=0;exitDy=5;exitPerimeter=0;entryX=0;entryY=0;entryDx=0;entryDy=5;entryPerimeter=0;startArrow=classic;startFill=1;endArrow=none;endFill=0;" edge="1" parent="1" source="Ls0kTGW3VqZ2c9Jo3m9s-11" target="Ls0kTGW3VqZ2c9Jo3m9s-14">
          <mxGeometry relative="1" as="geometry" />
        </mxCell>
        <mxCell id="Ls0kTGW3VqZ2c9Jo3m9s-54" value="Text" style="edgeLabel;html=1;align=center;verticalAlign=middle;resizable=0;points=[];" vertex="1" connectable="0" parent="Ls0kTGW3VqZ2c9Jo3m9s-15">
          <mxGeometry x="0.1398" relative="1" as="geometry">
            <mxPoint x="1" as="offset" />
          </mxGeometry>
        </mxCell>
        <mxCell id="Ls0kTGW3VqZ2c9Jo3m9s-18" style="edgeStyle=orthogonalEdgeStyle;rounded=0;orthogonalLoop=1;jettySize=auto;html=1;curved=0;exitX=0;exitY=1;exitDx=0;exitDy=-5;exitPerimeter=0;entryX=1;entryY=1;entryDx=0;entryDy=-5;entryPerimeter=0;dashed=1;dashPattern=12 12;startArrow=classic;startFill=1;endArrow=none;endFill=0;" edge="1" parent="1" source="Ls0kTGW3VqZ2c9Jo3m9s-14" target="Ls0kTGW3VqZ2c9Jo3m9s-11">
          <mxGeometry relative="1" as="geometry" />
        </mxCell>
        <mxCell id="Ls0kTGW3VqZ2c9Jo3m9s-53" value="OK" style="edgeLabel;html=1;align=center;verticalAlign=middle;resizable=0;points=[];" vertex="1" connectable="0" parent="Ls0kTGW3VqZ2c9Jo3m9s-18">
          <mxGeometry x="0.0785" y="-1" relative="1" as="geometry">
            <mxPoint as="offset" />
          </mxGeometry>
        </mxCell>
        <mxCell id="Ls0kTGW3VqZ2c9Jo3m9s-22" style="edgeStyle=orthogonalEdgeStyle;rounded=0;orthogonalLoop=1;jettySize=auto;html=1;curved=0;exitX=1;exitY=0;exitDx=0;exitDy=5;exitPerimeter=0;entryX=0;entryY=0;entryDx=0;entryDy=5;entryPerimeter=0;startArrow=classic;startFill=1;endArrow=none;endFill=0;" edge="1" parent="1" source="Ls0kTGW3VqZ2c9Jo3m9s-19" target="Ls0kTGW3VqZ2c9Jo3m9s-21">
          <mxGeometry relative="1" as="geometry" />
        </mxCell>
        <mxCell id="Ls0kTGW3VqZ2c9Jo3m9s-23" style="edgeStyle=orthogonalEdgeStyle;rounded=0;orthogonalLoop=1;jettySize=auto;html=1;curved=0;exitX=0;exitY=1;exitDx=0;exitDy=-5;exitPerimeter=0;entryX=1;entryY=1;entryDx=0;entryDy=-5;entryPerimeter=0;dashed=1;dashPattern=8 8;startArrow=classic;startFill=1;endArrow=none;endFill=0;" edge="1" parent="1" source="Ls0kTGW3VqZ2c9Jo3m9s-21" target="Ls0kTGW3VqZ2c9Jo3m9s-19">
          <mxGeometry relative="1" as="geometry" />
        </mxCell>
        <mxCell id="Ls0kTGW3VqZ2c9Jo3m9s-52" value="OK" style="edgeLabel;html=1;align=center;verticalAlign=middle;resizable=0;points=[];" vertex="1" connectable="0" parent="Ls0kTGW3VqZ2c9Jo3m9s-23">
          <mxGeometry x="-0.0514" relative="1" as="geometry">
            <mxPoint as="offset" />
          </mxGeometry>
        </mxCell>
        <mxCell id="Ls0kTGW3VqZ2c9Jo3m9s-26" style="edgeStyle=orthogonalEdgeStyle;rounded=0;orthogonalLoop=1;jettySize=auto;html=1;curved=0;exitX=1;exitY=0;exitDx=0;exitDy=5;exitPerimeter=0;entryX=0;entryY=0;entryDx=0;entryDy=5;entryPerimeter=0;startArrow=classic;startFill=1;endArrow=none;endFill=0;" edge="1" parent="1" source="Ls0kTGW3VqZ2c9Jo3m9s-24" target="Ls0kTGW3VqZ2c9Jo3m9s-25">
          <mxGeometry relative="1" as="geometry" />
        </mxCell>
        <mxCell id="Ls0kTGW3VqZ2c9Jo3m9s-27" style="edgeStyle=orthogonalEdgeStyle;rounded=0;orthogonalLoop=1;jettySize=auto;html=1;curved=0;exitX=0;exitY=1;exitDx=0;exitDy=-5;exitPerimeter=0;entryX=1;entryY=1;entryDx=0;entryDy=-5;entryPerimeter=0;dashed=1;dashPattern=8 8;startArrow=classic;startFill=1;endArrow=none;endFill=0;" edge="1" parent="1" source="Ls0kTGW3VqZ2c9Jo3m9s-25" target="Ls0kTGW3VqZ2c9Jo3m9s-24">
          <mxGeometry relative="1" as="geometry" />
        </mxCell>
        <mxCell id="Ls0kTGW3VqZ2c9Jo3m9s-51" value="OK" style="edgeLabel;html=1;align=center;verticalAlign=middle;resizable=0;points=[];" vertex="1" connectable="0" parent="Ls0kTGW3VqZ2c9Jo3m9s-27">
          <mxGeometry x="0.0118" relative="1" as="geometry">
            <mxPoint as="offset" />
          </mxGeometry>
        </mxCell>
        <mxCell id="Ls0kTGW3VqZ2c9Jo3m9s-31" style="edgeStyle=orthogonalEdgeStyle;rounded=0;orthogonalLoop=1;jettySize=auto;html=1;curved=0;exitX=1;exitY=1;exitDx=0;exitDy=-5;exitPerimeter=0;entryX=0;entryY=0;entryDx=0;entryDy=5;entryPerimeter=0;" edge="1" parent="1" source="Ls0kTGW3VqZ2c9Jo3m9s-28" target="Ls0kTGW3VqZ2c9Jo3m9s-30">
          <mxGeometry relative="1" as="geometry" />
        </mxCell>
        <mxCell id="Ls0kTGW3VqZ2c9Jo3m9s-34" style="edgeStyle=orthogonalEdgeStyle;rounded=0;orthogonalLoop=1;jettySize=auto;html=1;curved=0;exitX=0;exitY=1;exitDx=0;exitDy=-5;exitPerimeter=0;entryX=1;entryY=0;entryDx=0;entryDy=5;entryPerimeter=0;dashed=1;dashPattern=8 8;" edge="1" parent="1" source="Ls0kTGW3VqZ2c9Jo3m9s-30" target="Ls0kTGW3VqZ2c9Jo3m9s-33">
          <mxGeometry relative="1" as="geometry" />
        </mxCell>
        <mxCell id="Ls0kTGW3VqZ2c9Jo3m9s-48" value="&lt;div&gt;OK&lt;/div&gt;" style="edgeLabel;html=1;align=center;verticalAlign=middle;resizable=0;points=[];" vertex="1" connectable="0" parent="Ls0kTGW3VqZ2c9Jo3m9s-34">
          <mxGeometry x="-0.0482" y="-1" relative="1" as="geometry">
            <mxPoint as="offset" />
          </mxGeometry>
        </mxCell>
        <mxCell id="Ls0kTGW3VqZ2c9Jo3m9s-37" value="" style="html=1;points=[[0,0,0,0,5],[0,1,0,0,-5],[1,0,0,0,5],[1,1,0,0,-5]];perimeter=orthogonalPerimeter;outlineConnect=0;targetShapes=umlLifeline;portConstraint=eastwest;newEdgeStyle={&quot;curved&quot;:0,&quot;rounded&quot;:0};" vertex="1" parent="1">
          <mxGeometry x="616" y="350" width="10" height="30" as="geometry" />
        </mxCell>
        <mxCell id="Ls0kTGW3VqZ2c9Jo3m9s-39" style="edgeStyle=orthogonalEdgeStyle;rounded=0;orthogonalLoop=1;jettySize=auto;html=1;curved=0;exitX=1;exitY=0;exitDx=0;exitDy=5;exitPerimeter=0;entryX=0;entryY=0;entryDx=0;entryDy=5;entryPerimeter=0;" edge="1" parent="1" source="Ls0kTGW3VqZ2c9Jo3m9s-37" target="Ls0kTGW3VqZ2c9Jo3m9s-38">
          <mxGeometry relative="1" as="geometry" />
        </mxCell>
        <mxCell id="Ls0kTGW3VqZ2c9Jo3m9s-45" value="Envío de Resultados" style="edgeLabel;html=1;align=center;verticalAlign=middle;resizable=0;points=[];" vertex="1" connectable="0" parent="Ls0kTGW3VqZ2c9Jo3m9s-39">
          <mxGeometry x="0.1236" y="2" relative="1" as="geometry">
            <mxPoint as="offset" />
          </mxGeometry>
        </mxCell>
        <mxCell id="Ls0kTGW3VqZ2c9Jo3m9s-40" style="edgeStyle=orthogonalEdgeStyle;rounded=0;orthogonalLoop=1;jettySize=auto;html=1;curved=0;exitX=0;exitY=1;exitDx=0;exitDy=-5;exitPerimeter=0;entryX=1;entryY=1;entryDx=0;entryDy=-5;entryPerimeter=0;dashed=1;dashPattern=8 8;" edge="1" parent="1" source="Ls0kTGW3VqZ2c9Jo3m9s-38" target="Ls0kTGW3VqZ2c9Jo3m9s-37">
          <mxGeometry relative="1" as="geometry" />
        </mxCell>
        <mxCell id="Ls0kTGW3VqZ2c9Jo3m9s-46" value="OK" style="edgeLabel;html=1;align=center;verticalAlign=middle;resizable=0;points=[];" vertex="1" connectable="0" parent="Ls0kTGW3VqZ2c9Jo3m9s-40">
          <mxGeometry x="-0.0604" y="1" relative="1" as="geometry">
            <mxPoint x="1" as="offset" />
          </mxGeometry>
        </mxCell>
      </root>
    </mxGraphModel>
  </diagram>
</mxfile>
